<?xml version="1.0" encoding="utf-8"?>
<!-- Generator: Adobe Illustrator 24.1.2, SVG Export Plug-In . SVG Version: 6.00 Build 0)  -->
<svg version="1.1" id="Layer_1" xmlns="http://www.w3.org/2000/svg" xmlns:xlink="http://www.w3.org/1999/xlink" x="0px" y="0px"
	 viewBox="0 0 432 144" style="enable-background:new 0 0 432 144;" xml:space="preserve">
<style type="text/css">
	.st0{fill:#EC8600;}
</style>
<g id="_x31_4ad7224-7fcb-412d-8f1e-baf837777cab" transform="matrix(5.190311230281897,0,0,5.190311230281897,-1.401384176182944,128.6789608888817)">
	<path class="st0" d="M21.39-3.2h-2.92l-1.58-8.36L15.31-3.2h-2.9l-1.8-10.95h2.36l1.05,7.85l1.47-7.85h2.82l1.47,7.85l1.05-7.85
		h2.36L21.39-3.2z M30.6-3.23h-1.99L28.47-4l0,0c-0.59,0.63-1.36,0.95-2.32,0.95l0,0l0,0c-0.79,0-1.36-0.21-1.73-0.62l0,0l0,0
		c-0.36-0.41-0.54-0.95-0.54-1.6l0,0v-0.14l0,0c0-0.75,0.23-1.3,0.68-1.66l0,0l0,0c0.45-0.35,1.11-0.59,1.98-0.72l0,0l1.71-0.27l0,0
		c-0.01-0.38-0.09-0.66-0.24-0.83l0,0l0,0c-0.15-0.17-0.41-0.26-0.77-0.26l0,0l0,0c-0.67,0-1,0.32-1,0.95l0,0h-2.08v-0.13l0,0
		c0-0.73,0.24-1.33,0.73-1.8l0,0l0,0c0.48-0.47,1.29-0.7,2.42-0.7l0,0l0,0c1.15,0,1.97,0.23,2.44,0.7l0,0l0,0
		c0.47,0.47,0.71,1.18,0.71,2.13l0,0v2.67L30.6-3.23z M26.96-4.84L26.96-4.84L26.96-4.84c0.5,0,0.93-0.19,1.29-0.56l0,0v-1.36
		l-1.26,0.2l0,0c-0.61,0.1-0.91,0.39-0.91,0.88l0,0v0.08l0,0c0,0.22,0.07,0.4,0.21,0.54l0,0l0,0C26.44-4.91,26.66-4.84,26.96-4.84z
		 M34.76-11.62L34.76-11.62v0.97h1.62v1.93h-1.62v5.49h-2.22v-5.49h-1.13v-1.93h1.13v-1.2l0,0c0-1.84,0.93-2.76,2.79-2.76l0,0l0,0
		c0.58,0,0.98,0.06,1.19,0.18l0,0v1.82l0,0c-0.13-0.07-0.36-0.1-0.67-0.1l0,0l0,0c-0.37,0-0.65,0.08-0.83,0.23l0,0l0,0
		C34.85-12.33,34.76-12.04,34.76-11.62z M40.51-11.62L40.51-11.62v0.97h1.62v1.93h-1.62v5.49H38.3v-5.49h-1.14v-1.93h1.14v-1.2l0,0
		c0-1.84,0.93-2.76,2.78-2.76l0,0l0,0c0.58,0,0.98,0.06,1.19,0.18l0,0v1.82l0,0c-0.13-0.07-0.35-0.1-0.67-0.1l0,0l0,0
		c-0.37,0-0.65,0.08-0.82,0.23l0,0l0,0C40.6-12.33,40.51-12.04,40.51-11.62z M45.62-3.23h-2.21v-11.2h2.21V-3.23z M53.74-7.14v1
		h-4.73l0,0c0.03,0.5,0.17,0.86,0.4,1.08l0,0l0,0c0.23,0.22,0.57,0.33,1,0.33l0,0l0,0c0.37,0,0.67-0.09,0.9-0.26l0,0l0,0
		c0.23-0.18,0.34-0.39,0.34-0.62l0,0h2.09v0.06l0,0c0,0.73-0.3,1.32-0.89,1.79l0,0l0,0c-0.59,0.47-1.41,0.71-2.46,0.71l0,0l0,0
		c-1.18,0-2.07-0.34-2.68-1.01l0,0l0,0C47.1-4.73,46.8-5.62,46.8-6.74l0,0v-0.4l0,0c0-1.11,0.3-2,0.91-2.68l0,0l0,0
		c0.61-0.67,1.47-1.01,2.6-1.01l0,0l0,0c1.13,0,1.98,0.34,2.56,1.01l0,0l0,0C53.45-9.15,53.74-8.26,53.74-7.14L53.74-7.14z
		 M51.51-7.74L51.51-7.74c-0.06-0.94-0.47-1.41-1.24-1.41l0,0l0,0c-0.77,0-1.18,0.47-1.25,1.41l0,0H51.51z M57.16-3.23l2.73-10.95
		h3.12l2.73,10.95h-2.42l-0.54-2.35h-2.67l-0.52,2.35H57.16z M62.34-7.54l-0.9-4.02l-0.9,4.02H62.34z M68.9-3.23h-2.21v-7.42h2.21
		V-3.23z M66.63-14.04h2.33v2.34h-2.33V-14.04z M74.39-10.83L74.39-10.83L74.39-10.83c0.1,0,0.17,0,0.21,0.01l0,0v2.13h-0.38l0,0
		c-0.77,0-1.3,0.21-1.59,0.64l0,0v4.82h-2.22v-5.32l-0.12-2.1h1.97l0.16,0.87l0,0C72.91-10.48,73.57-10.83,74.39-10.83z"/>
</g>
</svg>
