<?xml version="1.0" encoding="utf-8"?>
<!-- Generator: Adobe Illustrator 24.1.2, SVG Export Plug-In . SVG Version: 6.00 Build 0)  -->
<svg version="1.1" id="Layer_1" xmlns="http://www.w3.org/2000/svg" xmlns:xlink="http://www.w3.org/1999/xlink" x="0px" y="0px"
	 viewBox="0 0 288 72" style="enable-background:new 0 0 288 72;" xml:space="preserve">
<style type="text/css">
	.st0{fill:#EC8600;stroke:#EC8600;stroke-width:0.8308;stroke-miterlimit:8.3076;}
</style>
<g id="_x33_eb1eafe-eca1-41b8-99da-fd5fa68fea6e" transform="matrix(0.8307631446620638,0,0,0.8307631446620638,42.48076114166804,223.15676281876313)">
	<path class="st0" d="M-26.19-220.52h0.93l1.18-4.23c0.15-0.53,0.28-1.09,0.41-1.64h0.04c0.12,0.55,0.24,1.11,0.36,1.64l1.23,4.23
		h0.97l1.44-9.26h-0.78l-0.87,6.13c-0.06,0.75-0.18,1.52-0.24,2.26h-0.05c-0.23-0.74-0.44-1.53-0.62-2.26l-1.11-3.72h-0.65
		l-1.1,3.72c-0.19,0.75-0.42,1.52-0.63,2.26h-0.04c-0.07-0.74-0.19-1.5-0.25-2.26l-0.91-6.13h-0.81L-26.19-220.52z M-10.74-220.52
		h5.69v-0.72H-9.9v-3.81h3.96v-0.72H-9.9v-3.29h4.71v-0.7h-5.55V-220.52z M6.83-226.19h0.62l0.29-2.75l0.02-1.22H6.52l0.02,1.22
		L6.83-226.19z M19.89-220.52h0.83v-4.12h1.85l2.39,4.12h0.95l-2.43-4.16c1.34-0.28,2.22-1.12,2.22-2.61c0-1.8-1.26-2.47-3.09-2.47
		h-2.72V-220.52z M20.72-225.34v-3.75h1.72c1.56,0,2.42,0.49,2.42,1.8c0,1.32-0.86,1.95-2.42,1.95H20.72z M35.46-220.52h5.69v-0.72
		H36.3v-3.81h3.96v-0.72H36.3v-3.29h4.71v-0.7h-5.55V-220.52z M68.85-220.36c1.92,0,3.14-1.1,3.14-2.54c0-1.4-0.97-1.95-2.06-2.45
		l-1.36-0.59c-0.74-0.34-1.69-0.72-1.69-1.71c0-0.95,0.81-1.54,2.03-1.54c0.96,0,1.71,0.36,2.29,0.91l0.47-0.55
		c-0.62-0.63-1.6-1.1-2.76-1.1c-1.67,0-2.89,0.96-2.89,2.34c0,1.34,1.12,1.97,2.01,2.33l1.37,0.59c0.96,0.44,1.75,0.74,1.75,1.84
		c0,1.03-0.87,1.73-2.3,1.73c-1.09,0-2.08-0.49-2.77-1.23l-0.52,0.59C66.33-220.92,67.47-220.36,68.85-220.36z M84.15-220.36
		c1.63,0,3-0.89,3-3.62v-5.78h-0.81v5.72c0,2.23-1,2.94-2.19,2.94c-1.2,0-2.18-0.71-2.18-2.94v-5.72h-0.84v5.78
		C81.13-221.25,82.5-220.36,84.15-220.36z M96.89-220.52h0.83v-4.12h1.85l2.39,4.12h0.95l-2.43-4.16c1.34-0.28,2.22-1.12,2.22-2.61
		c0-1.8-1.26-2.47-3.09-2.47h-2.72L96.89-220.52L96.89-220.52z M97.72-225.34v-3.75h1.72c1.56,0,2.42,0.49,2.42,1.8
		c0,1.32-0.86,1.95-2.42,1.95H97.72z M112.46-220.52h5.69v-0.72h-4.85v-3.81h3.96v-0.72h-3.96v-3.29h4.71v-0.7h-5.55V-220.52z
		 M142.98-220.52h5.52v-0.72h-2.34v-7.82h2.34v-0.7h-5.52v0.7h2.34v7.82h-2.34V-220.52z M160.72-220.52h0.84v-8.54h3.14v-0.7h-7.12
		v0.7h3.14V-220.52z M176.23-226.19h0.62l0.29-2.75l0.02-1.22h-1.24l0.02,1.22L176.23-226.19z M192.05-220.36
		c1.92,0,3.14-1.1,3.14-2.54c0-1.4-0.97-1.95-2.06-2.45l-1.36-0.59c-0.74-0.34-1.69-0.72-1.69-1.71c0-0.95,0.81-1.54,2.03-1.54
		c0.96,0,1.71,0.36,2.29,0.91l0.47-0.55c-0.62-0.63-1.6-1.1-2.76-1.1c-1.67,0-2.89,0.96-2.89,2.34c0,1.34,1.12,1.97,2.01,2.33
		l1.37,0.59c0.96,0.44,1.75,0.74,1.75,1.84c0,1.03-0.87,1.73-2.3,1.73c-1.09,0-2.08-0.49-2.77-1.23l-0.52,0.59
		C189.53-220.92,190.67-220.36,192.05-220.36z M220.57-220.52h0.83v-4.36h3.92v-0.68h-3.92v-3.5h4.63v-0.7h-5.46V-220.52z
		 M235.38-220.52h5.52v-0.72h-2.34v-7.82h2.34v-0.7h-5.52v0.7h2.34v7.82h-2.34V-220.52z M250.59-220.52h0.78v-5.42
		c0-0.9-0.08-1.81-0.1-2.72h0.02l0.98,1.85l3.37,6.29h0.85v-9.24h-0.78v5.36c0,0.92,0.08,1.87,0.1,2.76h-0.02l-4.35-8.12h-0.85
		V-220.52z M266.46-220.52h5.69v-0.72h-4.85v-3.81h3.96v-0.72h-3.96v-3.29h4.71v-0.7h-5.55V-220.52z"/>
</g>
</svg>
