<?xml version="1.0" encoding="utf-8"?>
<!-- Generator: Adobe Illustrator 24.1.2, SVG Export Plug-In . SVG Version: 6.00 Build 0)  -->
<svg version="1.1" id="Layer_1" xmlns="http://www.w3.org/2000/svg" xmlns:xlink="http://www.w3.org/1999/xlink" x="0px" y="0px"
	 viewBox="0 0 432 432" style="enable-background:new 0 0 432 432;" xml:space="preserve">
<style type="text/css">
	.st0{fill:#EC8600;}
</style>
<g id="e3a51028-9164-4d22-82fd-9758db4115fa" transform="matrix(1.1111129760742187,0,0,1.1111129760742187,111.44426730117233,0.4442669095025735)">
	<path class="st0" d="M189.04,157.87c-5.02-11.88-12.29-22.68-21.43-31.79c-18.74-18.78-44.18-29.32-70.71-29.29
		c-13.37-0.02-26.61,2.65-38.93,7.86c-11.88,5.02-22.67,12.3-31.78,21.43c-9.13,9.11-16.41,19.9-21.43,31.79
		c-5.21,12.31-7.89,25.55-7.86,38.93c0,13.5,2.65,26.59,7.86,38.93c5.02,11.88,12.29,22.68,21.43,31.79
		c9.11,9.13,19.9,16.41,31.78,21.42c12.32,5.21,25.56,7.89,38.93,7.86c13.37,0.02,26.61-2.65,38.93-7.86
		c11.88-5.02,22.68-12.29,31.78-21.42c9.13-9.11,16.41-19.91,21.43-31.79c5.21-12.31,7.89-25.55,7.86-38.93
		C196.9,183.3,194.26,170.21,189.04,157.87z M94.4,285.87c-0.49-2.64-0.26-3.78-0.26-6.55c0-2.55,0.56-4.19,2.28-5.32
		c0.16,0.01,0.32,0.01,0.48,0.01c3.77,0,7.51-0.27,11.18-0.8c4.01,2.47,6.15,6.4,6.16,11.01c-5.71,1.12-11.52,1.69-17.34,1.69
		C96.07,285.91,95.24,285.9,94.4,285.87z M164.15,221.89c-2.62,5.87-7.02,6.79-9.48,6.61c-3.05-0.22-6.77-3.06-8.26-5.63
		c-0.79-1.37-1.3-3.04-1.08-4.64c0.15-1.07,0.13-4.48,8.31-4.48h9.89c1.2,0,2.18,0.39,2.86,1.05
		C165.76,217.2,165.02,219.57,164.15,221.89z M120.87,256.22c-2.91-2.52-3.96-6-2.37-9.61c1.69-3.85,3.35-4.16,8.79-4.16h4.7
		c2.89,0.01,5.23,2.35,5.24,5.25v1.18c0,3.88-2.35,6.88-5.38,8.03C126.82,258.82,123.62,258.61,120.87,256.22z M108.57,229.87v2.09
		c-0.01,2.89-2.35,5.23-5.25,5.24H96.9c-6.1-0.04-6.08-2.88-6.08-3.98c0-2.25,3.18-4,4-4.5c2.6-1.6,6.19-1.57,9.33-1.57
		C107.48,227.15,108.57,228.28,108.57,229.87z M85.14,254.86c0-9.4,7.91-10.12,11.66-7.22c2.7,2.09,2.41,5.95,2.24,9.99
		c-0.17,4.05-1.63,7.89-7.26,6.89c-2.58-0.46-6.17-3.3-6.64-7.08L85.14,254.86L85.14,254.86z M111.04,177.61
		c3.75,0.7,6.36,4.05,6.28,7.75c-0.01,0.42-0.05,0.84-0.12,1.26l-3.3,17.54l-0.76,4.02c-0.67,3.56-3.73,6.1-7.21,6.28
		c-0.59,0.03-1.2,0-1.81-0.12l-3.14-0.59l-18.42-3.47c-1.87-0.35-3.54-1.39-4.69-2.9c-1.34-1.73-1.87-3.96-1.47-6.11l2.61-13.87
		l1.45-7.69c0.49-2.57,2.25-4.72,4.68-5.71c1.37-0.56,2.87-0.72,4.33-0.45l18.48,3.47L111.04,177.61z M56.47,219
		c0.01-2.89,2.35-5.24,5.25-5.24h4.97c2.1,0.08,3.86,0.36,5.27,1.32c2.55,1.72,3.12,2.81,3.12,5.94c0,5.66-4.36,10.83-13.48,10.83
		c-3.25,0-5-3.33-5.13-8.3L56.47,219L56.47,219z M68.68,156.36c8.44,0.33,8.59,3.24,8.59,4.96c-0.01,1.99,0.47,7.08-2.42,9.84
		c-4.3,4.12-12.34,6.91-18.38,1.58v-11.14c0.01-2.89,2.35-5.24,5.25-5.25C61.71,156.36,68.68,156.36,68.68,156.36z M164.04,201.71
		c-2.04,1.27-6.95,3.31-12.3,3.04c-6.89-0.35-9.15-6.75-9.25-11.62v-2.84c0.01-2.89,2.35-5.23,5.24-5.24h16.72
		c1.25,0,2.45,0.44,3.44,1.17c0.23,1.58,0.42,3.17,0.54,4.78C167.99,195.56,168.17,199.14,164.04,201.71z M163.42,179.81h-15.7
		c-2.89-0.01-5.24-2.35-5.24-5.25v-12.96c0.01-2.89,2.35-5.24,5.24-5.25h5.71c1.06,0,2.19,0.29,3.28,0.77
		c4.39,6.6,7.65,13.89,9.65,21.56C165.68,179.39,164.67,179.81,163.42,179.81z M149.69,151.12h-1.97c-2.89-0.01-5.24-2.35-5.24-5.25
		v-2c0-0.9,0.19-1.59,0.5-2.08c3.19,2.67,6.14,5.62,8.82,8.8C151.32,150.92,150.62,151.12,149.69,151.12z M136.5,136.95
		c0.46,1.06,0.74,2.16,0.74,3.19v5.73c-0.01,2.89-2.35,5.24-5.24,5.25h-12.94c-2.89-0.01-5.24-2.35-5.24-5.25V130.2
		c0-1.22,0.4-2.21,1.08-2.89C122.58,129.3,129.88,132.56,136.5,136.95z M107.44,125.81c0.7,0.98,1.12,2.15,1.12,3.37v3.79
		c-0.31,10.29-10.08,16.21-19.05,14.28c-1.44-0.31-4.38-0.43-4.38-5.74V129.2c0-1.22,0.42-2.4,1.12-3.37
		C93.28,124.78,100.42,124.78,107.44,125.81z M78.82,127.34c0.67,0.68,1.07,1.67,1.07,2.88v15.65c-0.01,2.89-2.35,5.24-5.24,5.25
		H61.71c-2.89-0.01-5.24-2.35-5.25-5.25v-5.67c0-1.03,0.28-2.13,0.74-3.19C63.82,132.61,71.12,129.34,78.82,127.34z M50.72,141.88
		c0.31,0.48,0.5,1.17,0.5,2.07v1.93c-0.01,2.89-2.35,5.24-5.24,5.25h-1.96c-0.89,0-1.56-0.18-2.05-0.49
		C44.63,147.47,47.56,144.54,50.72,141.88z M37.13,157.08c1.04-0.45,2.13-0.72,3.14-0.72h5.7c2.89,0.01,5.24,2.35,5.24,5.25v12.96
		c-0.01,2.89-2.35,5.24-5.24,5.25H30.28c-1.2,0-2.18-0.39-2.86-1.04C29.42,171.05,32.71,163.72,37.13,157.08z M25.93,186.15
		c0.97-0.7,2.14-1.08,3.33-1.09h16.72c2.89,0.01,5.24,2.35,5.24,5.24v3.63c-2.8,3.47-8.15,3.24-12.28,3.08
		c-4.6-0.18-6.42,7.69-3.3,11.5h-6.39c-1.2-0.01-2.36-0.39-3.33-1.09C24.88,200.37,24.88,193.2,25.93,186.15z M30.27,213.75h15.7
		c2.89,0.01,5.24,2.35,5.24,5.25v12.96c-0.01,2.89-2.35,5.24-5.24,5.24h-5.73c-1.01,0-2.1-0.27-3.14-0.71
		c-4.42-6.64-7.69-13.97-9.69-21.69C28.09,214.14,29.07,213.75,30.27,213.75z M43.98,242.45h1.99c2.89,0.01,5.24,2.35,5.24,5.25v2
		c0,0.88-0.18,1.56-0.48,2.04c-3.18-2.68-6.12-5.62-8.8-8.8C42.42,242.63,43.1,242.45,43.98,242.45z M57.18,256.57
		c-0.45-1.04-0.72-2.13-0.72-3.14v-5.74c0.01-2.89,2.35-5.24,5.25-5.25h12.94c2.89,0.01,5.24,2.35,5.24,5.25v4.77
		c-0.23,4.28-1.54,7.38-5.08,9.05c-3.94,1.86-7.98,0.5-11.46-1.28c-0.27-0.15-0.55-0.28-0.82-0.43c-0.41-0.22-0.8-0.45-1.2-0.68
		C59.92,258.33,58.53,257.47,57.18,256.57z M139.16,275.27c-1.63-1.15-2.95-2.65-4.9-5.47c-1.59-2.32-3.01-3.41-0.59-5.06
		c0.46-0.25,0.92-0.5,1.38-0.76c5.6-1.92,9.77,3.15,13.11,5.73C145.27,271.73,142.26,273.59,139.16,275.27z M156.34,263.19
		c-2.91-2.14-5.03-4.94-5.97-7.3c-1.15-2.87,7.05-9.47,10.49-8.22c2.5,0.91,4.22,2.56,6.46,3.73
		C164.02,255.65,160.34,259.6,156.34,263.19z M174.24,241.1c-4.18-2.02-9.71-4.64-7.54-11.21c4.85-10.21,7.41-21.45,7.41-33.09
		c0-20.62-8.03-40.01-22.62-54.59c-14.58-14.58-33.97-22.61-54.59-22.61s-40.01,8.03-54.6,22.62
		c-14.58,14.58-22.61,33.97-22.61,54.59c0,20.62,8.03,40.01,22.62,54.6c11.75,11.75,26.63,19.25,42.76,21.71
		c0.02,0.02,0.05,0.03,0.08,0.04c1.81,1.11,2.33,2.8,2.18,4.87c-0.21,3.03-2.05,5.02-4.47,6.79c-42.54-6.74-75.06-43.57-75.06-88.01
		c0-49.21,39.89-89.11,89.11-89.11s89.11,39.9,89.11,89.11C186.03,212.34,181.97,227.62,174.24,241.1L174.24,241.1z"/>
</g>
</svg>
